<svg width="137" height="61" viewBox="0 0 137 61" fill="none" xmlns="http://www.w3.org/2000/svg">
<g clip-path="url(#clip0_1_41)">
<path d="M0 26.5083V31.8725C1.71535 31.8712 3.41411 32.2314 4.99906 32.9324C6.58402 33.6335 8.02406 34.6616 9.2368 35.958C10.4492 37.2539 11.4108 38.7925 12.0664 40.4857C12.722 42.179 13.0589 43.9938 13.0578 45.8263H18.074C18.0695 40.705 16.1639 35.7948 12.7755 32.1731C9.38702 28.5514 4.79246 26.5142 0 26.5083H0Z" fill="black"/>
<path d="M25.086 16.8512H17.1364C21.1579 19.5746 24.5655 23.2155 27.1146 27.5125V19.0175C27.1142 18.4428 26.9003 17.8918 26.5199 17.4856C26.1395 17.0794 25.6238 16.8512 25.086 16.8512V16.8512Z" fill="black"/>
<path d="M4.99479 16.8512H0V21.6809C5.99072 21.6876 11.7343 24.2336 15.9705 28.7602C20.2066 33.2869 22.5893 39.4245 22.5957 45.8262H27.1146V40.4887C26.0929 34.6225 23.4327 29.2244 19.4843 25.005C15.5359 20.7857 10.4844 17.9431 4.99479 16.8512V16.8512Z" fill="black"/>
<path d="M39.4096 20.0408H36.2258V37.1894H39.4096V20.0408Z" fill="black"/>
<path d="M51.116 27.4706C50.586 26.9557 49.9656 26.5584 49.2907 26.3017C47.8412 25.7577 46.2614 25.7577 44.8118 26.3017C44.1367 26.5582 43.5161 26.9555 42.9859 27.4706C42.4659 27.9828 42.0505 28.6043 41.7657 29.296C41.4714 30.0506 41.3198 30.8601 41.3198 31.6777C41.3198 32.4952 41.4714 33.3047 41.7657 34.0593C42.0495 34.7531 42.465 35.3762 42.9859 35.8894C43.5151 36.4048 44.1355 36.8019 44.8104 37.0575C46.2598 37.6024 47.8399 37.6024 49.2893 37.0575C49.9645 36.8019 50.585 36.4048 51.1146 35.8894C51.6353 35.376 52.0507 34.7529 52.3347 34.0593C52.6291 33.3047 52.7806 32.4952 52.7806 31.6777C52.7806 30.8601 52.6291 30.0506 52.3347 29.296C52.0502 28.6045 51.6353 27.9831 51.116 27.4706ZM48.9297 33.6972C48.4141 34.1934 47.7448 34.4681 47.0509 34.4681C46.357 34.4681 45.6877 34.1934 45.1722 33.6972C44.7389 33.1255 44.5024 32.4122 44.5024 31.6765C44.5024 30.9409 44.7389 30.2275 45.1722 29.6559C45.6877 29.1596 46.357 28.885 47.0509 28.885C47.7448 28.885 48.4141 29.1596 48.9297 29.6559C49.363 30.2275 49.5995 30.9409 49.5995 31.6765C49.5995 32.4122 49.363 33.1255 48.9297 33.6972V33.6972Z" fill="black"/>
<path d="M62.5462 27.6177H62.5062C62.359 27.3969 62.188 27.1952 61.9968 27.0169C61.7651 26.7979 61.5086 26.6109 61.2333 26.4603C60.5374 26.0787 59.7649 25.8842 58.9828 25.8937C58.2974 25.8809 57.6196 26.0485 57.0091 26.3817C56.4403 26.6965 55.938 27.1328 55.5335 27.6635C55.121 28.2105 54.8045 28.8329 54.5995 29.5004C54.3814 30.188 54.2703 30.9093 54.2705 31.6354C54.2625 32.4147 54.3848 33.1894 54.6316 33.9229C54.8552 34.5922 55.2038 35.206 55.6562 35.7269C56.107 36.2367 56.654 36.6383 57.261 36.905C57.921 37.1925 58.6283 37.3351 59.341 37.3244C59.8681 37.3146 60.3893 37.2033 60.8794 36.9957C61.429 36.773 61.9052 36.3824 62.2487 35.8726H62.2915V36.9401C62.3034 37.2961 62.2485 37.6511 62.13 37.9842C62.0115 38.3172 61.8318 38.6215 61.6015 38.8791C61.3093 39.1554 60.9676 39.3654 60.5972 39.4965C60.2268 39.6276 59.8354 39.6769 59.4466 39.6416C58.8301 39.649 58.2192 39.5175 57.6535 39.2558C57.0906 38.987 56.5654 38.636 56.0929 38.2127L54.3312 41.0225C55.0513 41.6423 55.893 42.0804 56.7936 42.3043C57.6848 42.5232 58.5964 42.6335 59.5108 42.6329C61.5201 42.6329 63.0164 42.0923 63.9997 41.0111C64.9829 39.9298 65.4748 38.3459 65.4753 36.2592V26.1659H62.5498L62.5462 27.6177ZM62.355 32.6419C62.2294 32.9646 62.0453 33.2577 61.8134 33.5042C61.5773 33.7557 61.3005 33.9593 60.9964 34.1051C60.6806 34.2549 60.339 34.3324 59.9935 34.3324C59.648 34.3324 59.3064 34.2549 58.9906 34.1051C58.6906 33.9572 58.4174 33.7538 58.1836 33.5042C57.9507 33.2556 57.7659 32.9604 57.6398 32.6354C57.5138 32.3104 57.4489 31.962 57.4489 31.6102C57.4489 31.2584 57.5138 30.91 57.6398 30.585C57.7659 30.26 57.9507 29.9648 58.1836 29.7161C58.4175 29.4666 58.6907 29.263 58.9906 29.1145C59.3065 28.9652 59.6481 28.8881 59.9935 28.8881C60.3389 28.8881 60.6805 28.9652 60.9964 29.1145C61.3004 29.2609 61.5771 29.4647 61.8134 29.7161C62.1637 30.0924 62.402 30.5709 62.4983 31.0915C62.5947 31.6121 62.5448 32.1515 62.355 32.6419V32.6419Z" fill="black"/>
<path d="M77.4364 27.4706C76.9064 26.9557 76.286 26.5584 75.6112 26.3017C74.1616 25.7577 72.5818 25.7577 71.1323 26.3017C70.4572 26.5582 69.8365 26.9555 69.3063 27.4706C68.7863 27.9828 68.371 28.6043 68.0861 29.296C67.7918 30.0506 67.6402 30.8601 67.6402 31.6777C67.6402 32.4952 67.7918 33.3047 68.0861 34.0593C68.3699 34.7531 68.7854 35.3762 69.3063 35.8894C69.836 36.4049 70.4568 36.8021 71.1323 37.0575C72.5817 37.6024 74.1617 37.6024 75.6112 37.0575C76.2863 36.8019 76.9069 36.4048 77.4364 35.8894C77.9573 35.3762 78.3728 34.7531 78.6566 34.0593C78.9509 33.3047 79.1025 32.4952 79.1025 31.6777C79.1025 30.8601 78.9509 30.0506 78.6566 29.296C78.3717 28.6043 77.9564 27.9828 77.4364 27.4706V27.4706ZM75.2501 33.6972C74.7345 34.1934 74.0652 34.4681 73.3714 34.4681C72.6775 34.4681 72.0082 34.1934 71.4926 33.6972C71.0593 33.1255 70.8228 32.4122 70.8228 31.6765C70.8228 30.9409 71.0593 30.2275 71.4926 29.6559C72.0082 29.1596 72.6775 28.885 73.3714 28.885C74.0652 28.885 74.7345 29.1596 75.2501 29.6559C75.6834 30.2275 75.9199 30.9409 75.9199 31.6765C75.9199 32.4122 75.6834 33.1255 75.2501 33.6972Z" fill="black"/>
<path d="M83.326 26.2422H81.6185V37.1894H83.326V26.2422Z" fill="black"/>
<path d="M82.4726 20.6287C82.307 20.6253 82.1426 20.6589 81.9899 20.7273C81.8372 20.7957 81.6995 20.8974 81.5856 21.0259C81.412 21.213 81.2941 21.4508 81.2468 21.7093C81.1994 21.9678 81.2247 22.2356 81.3196 22.4788C81.4144 22.722 81.5744 22.9297 81.7795 23.0759C81.9847 23.222 82.2257 23.3 82.4722 23.3C82.7188 23.3 82.9598 23.222 83.1649 23.0759C83.37 22.9297 83.5301 22.722 83.6249 22.4788C83.7197 22.2356 83.745 21.9678 83.6977 21.7093C83.6503 21.4508 83.5324 21.213 83.3588 21.0259C83.2451 20.8974 83.1076 20.7956 82.955 20.7272C82.8024 20.6588 82.638 20.6252 82.4726 20.6287V20.6287Z" fill="black"/>
<path d="M95.9564 27.6025C95.476 27.0785 94.8983 26.6678 94.2603 26.397C93.5601 26.1021 92.813 25.9552 92.0604 25.9647C91.3515 25.956 90.6505 26.1244 90.0133 26.4565C89.3857 26.79 88.8301 27.2598 88.3821 27.8358H88.3365V26.2422H86.6311V42.5231H88.3365V35.2489H88.38C88.7425 35.916 89.2707 36.4628 89.9062 36.8288C90.6441 37.2702 91.4791 37.4924 92.3244 37.4723C93.0166 37.477 93.7022 37.3296 94.3388 37.0392C94.9534 36.7606 95.5083 36.3506 95.9692 35.8345C96.4373 35.3069 96.8054 34.6876 97.0531 34.0106C97.5783 32.5335 97.5783 30.9019 97.0531 29.4249C96.8032 28.7463 96.4305 28.127 95.9564 27.6025V27.6025ZM95.3541 33.3213C95.195 33.7979 94.946 34.2346 94.6226 34.6043C94.2992 34.974 93.9083 35.2689 93.474 35.4707C92.5137 35.891 91.4373 35.891 90.4771 35.4707C90.0422 35.2689 89.6507 34.9738 89.3269 34.6037C89.0031 34.2335 88.7539 33.7963 88.5948 33.319C88.2596 32.2815 88.2596 31.1539 88.5948 30.1165C88.7539 29.6392 89.0031 29.2019 89.3269 28.8318C89.6507 28.4616 90.0422 28.1665 90.4771 27.9647C91.4373 27.5444 92.5137 27.5444 93.474 27.9647C93.9089 28.1665 94.3004 28.4616 94.6242 28.8318C94.9479 29.2019 95.1971 29.6392 95.3563 30.1165C95.6915 31.1539 95.6915 32.2815 95.3563 33.319L95.3541 33.3213Z" fill="black"/>
<path d="M106.048 31.72C105.724 31.4607 105.362 31.2593 104.978 31.1237C104.555 30.9715 104.124 30.8502 103.686 30.7608C103.358 30.7008 103.033 30.6229 102.712 30.5274C102.426 30.4445 102.148 30.3348 101.88 30.1996C101.666 30.0956 101.472 29.9486 101.309 29.7665C101.171 29.6036 101.097 29.3901 101.102 29.1702C101.098 28.9329 101.163 28.7002 101.288 28.5038C101.411 28.3097 101.571 28.1461 101.758 28.0242C101.958 27.8948 102.177 27.8001 102.405 27.7436C102.638 27.6818 102.878 27.6503 103.118 27.6498C103.576 27.6346 104.028 27.7606 104.42 28.0127C104.775 28.2509 105.071 28.5755 105.285 28.9597L106.708 27.954C106.393 27.2893 105.881 26.7545 105.252 26.4328C104.618 26.1182 103.926 25.9585 103.227 25.9654C102.753 25.9642 102.282 26.0351 101.827 26.1759C101.39 26.3088 100.976 26.5147 100.6 26.7859C100.24 27.0454 99.9409 27.3894 99.7246 27.7916C99.5006 28.2199 99.3873 28.7041 99.3964 29.1946C99.3785 29.6747 99.4805 30.1513 99.6918 30.5755C99.8845 30.9302 100.154 31.2308 100.477 31.4524C100.833 31.6927 101.22 31.8778 101.625 32.0021C102.064 32.1424 102.523 32.2672 103.005 32.3765C103.283 32.439 103.552 32.5092 103.815 32.587C104.061 32.6575 104.296 32.7637 104.515 32.9026C104.708 33.025 104.876 33.1882 105.008 33.3822C105.139 33.5972 105.204 33.8508 105.194 34.1074C105.202 34.377 105.133 34.6428 104.997 34.8699C104.861 35.0851 104.682 35.265 104.472 35.396C104.245 35.5406 103.997 35.6437 103.738 35.701C103.476 35.7626 103.208 35.7941 102.939 35.7948C102.407 35.8168 101.88 35.6789 101.418 35.3968C100.993 35.1076 100.618 34.7406 100.313 34.3125L98.9568 35.4357C99.3765 36.1321 99.9722 36.6873 100.675 37.0369C101.395 37.3424 102.166 37.4897 102.941 37.47C103.445 37.4705 103.948 37.4078 104.439 37.2832C104.906 37.1678 105.351 36.966 105.753 36.6869C106.136 36.4146 106.454 36.0487 106.68 35.6194C106.925 35.1322 107.046 34.5848 107.031 34.0319C107.045 33.5566 106.955 33.0843 106.769 32.6525C106.599 32.2865 106.352 31.9673 106.048 31.72V31.72Z" fill="black"/>
<path d="M118.349 34.5931V26.2422H116.642V31.5797C116.647 32.1551 116.585 32.729 116.456 33.2877C116.346 33.7666 116.152 34.219 115.885 34.6206C115.631 34.9939 115.291 35.2918 114.899 35.486C114.449 35.6999 113.959 35.8041 113.466 35.791C113.132 35.8198 112.797 35.7626 112.489 35.6242C112.18 35.4858 111.907 35.2703 111.693 34.9957C111.283 34.358 111.082 33.5929 111.122 32.8203V26.2422H109.414V33.0025C109.409 33.6153 109.487 34.2258 109.644 34.815C109.782 35.3374 110.025 35.8209 110.358 36.2309C110.691 36.6318 111.106 36.945 111.571 37.146C112.125 37.3771 112.716 37.4885 113.311 37.4738C113.711 37.4773 114.11 37.4179 114.493 37.2977C114.84 37.1899 115.171 37.0326 115.478 36.8303C115.757 36.6465 116.011 36.4222 116.233 36.1639C116.432 35.934 116.599 35.6737 116.726 35.3914H116.77C116.77 35.7041 116.777 36.0091 116.792 36.3064C116.807 36.6038 116.814 36.9002 116.813 37.1955H118.434C118.434 36.8361 118.419 36.4384 118.389 36.0022C118.36 35.5661 118.347 35.0964 118.349 34.5931Z" fill="black"/>
<path d="M136.803 28.6403C136.689 28.1106 136.464 27.6153 136.146 27.1915C135.824 26.7815 135.41 26.4665 134.942 26.2765C134.353 26.0493 133.729 25.9422 133.103 25.9608C132.424 25.9291 131.751 26.121 131.177 26.5106C130.644 26.9187 130.197 27.4406 129.864 28.0432C129.776 27.8556 129.663 27.6411 129.524 27.3997C129.369 27.139 129.173 26.9093 128.944 26.721C128.663 26.4926 128.35 26.3125 128.017 26.1873C127.569 26.0264 127.098 25.9511 126.626 25.9646C126.226 25.9611 125.828 26.0205 125.444 26.1408C125.098 26.2486 124.766 26.4058 124.459 26.6082C124.18 26.7923 123.926 27.0165 123.704 27.2746C123.505 27.5044 123.339 27.7648 123.212 28.047H123.167C123.167 27.7344 123.16 27.4309 123.146 27.132C123.132 26.8331 123.124 26.5396 123.124 26.243H121.504C121.504 26.6024 121.519 27.0001 121.548 27.4363C121.577 27.8724 121.591 28.3403 121.591 28.84V37.1902H123.3V31.8572C123.295 31.2816 123.357 30.7074 123.486 30.1485C123.595 29.6694 123.789 29.2169 124.057 28.8156C124.311 28.4422 124.65 28.1442 125.042 27.9502C125.493 27.7361 125.983 27.6319 126.476 27.6452C126.768 27.6185 127.062 27.675 127.327 27.809C127.592 27.9429 127.82 28.1495 127.986 28.4077C128.352 29.21 128.511 30.1025 128.446 30.9926V37.1917H130.15V30.8736C130.145 30.4234 130.216 29.9758 130.358 29.5522C130.485 29.1767 130.679 28.8311 130.929 28.535C131.166 28.2578 131.452 28.035 131.772 27.88C132.095 27.7237 132.446 27.6439 132.801 27.646C133.222 27.6296 133.642 27.7175 134.027 27.9029C134.33 28.0595 134.593 28.2927 134.792 28.5823C134.985 28.8691 135.119 29.1955 135.187 29.5408C135.26 29.9021 135.297 30.2707 135.296 30.6403V37.1902H137V30.5465C137.006 29.9049 136.94 29.2649 136.803 28.6403Z" fill="black"/>
</g>
<defs>
<clipPath id="clip0_1_41">
<rect width="137" height="61" fill="white"/>
</clipPath>
</defs>
</svg>
