<svg width="137" height="30" viewBox="0 0 137 30" fill="none" xmlns="http://www.w3.org/2000/svg">
<path d="M0 10.5083V15.8725C1.71535 15.8712 3.41411 16.2314 4.99906 16.9324C6.58402 17.6335 8.02406 18.6616 9.2368 19.958C10.4492 21.2539 11.4108 22.7925 12.0664 24.4857C12.722 26.179 13.0589 27.9938 13.0578 29.8263H18.074C18.0695 24.705 16.1639 19.7948 12.7755 16.1731C9.38702 12.5514 4.79246 10.5142 0 10.5083H0Z" fill="black"/>
<path d="M25.086 0.85125H17.1364C21.1579 3.57462 24.5655 7.21546 27.1146 11.5125V3.01751C27.1142 2.44284 26.9003 1.89185 26.5199 1.48564C26.1395 1.07943 25.6238 0.85125 25.086 0.85125V0.85125Z" fill="black"/>
<path d="M4.99479 0.85125H0V5.68092C5.99072 5.68758 11.7343 8.23358 15.9705 12.7602C20.2066 17.2869 22.5893 23.4245 22.5957 29.8262H27.1146V24.4887C26.0929 18.6225 23.4327 13.2244 19.4843 9.00504C15.5359 4.78573 10.4844 1.94305 4.99479 0.85125V0.85125Z" fill="black"/>
<path d="M39.4096 4.04079H36.2258V21.1894H39.4096V4.04079Z" fill="black"/>
<path d="M51.116 11.4706C50.586 10.9557 49.9656 10.5584 49.2907 10.3017C47.8412 9.75774 46.2614 9.75774 44.8118 10.3017C44.1367 10.5582 43.5161 10.9555 42.9859 11.4706C42.4659 11.9828 42.0505 12.6043 41.7657 13.296C41.4714 14.0506 41.3198 14.8601 41.3198 15.6777C41.3198 16.4952 41.4714 17.3047 41.7657 18.0593C42.0495 18.7531 42.465 19.3762 42.9859 19.8894C43.5151 20.4048 44.1355 20.8019 44.8104 21.0575C46.2598 21.6024 47.8399 21.6024 49.2893 21.0575C49.9645 20.8019 50.585 20.4048 51.1146 19.8894C51.6353 19.376 52.0507 18.7529 52.3347 18.0593C52.6291 17.3047 52.7806 16.4952 52.7806 15.6777C52.7806 14.8601 52.6291 14.0506 52.3347 13.296C52.0502 12.6045 51.6353 11.9831 51.116 11.4706ZM48.9297 17.6972C48.4141 18.1934 47.7448 18.4681 47.0509 18.4681C46.357 18.4681 45.6877 18.1934 45.1722 17.6972C44.7389 17.1255 44.5024 16.4122 44.5024 15.6765C44.5024 14.9409 44.7389 14.2275 45.1722 13.6559C45.6877 13.1596 46.357 12.885 47.0509 12.885C47.7448 12.885 48.4141 13.1596 48.9297 13.6559C49.363 14.2275 49.5995 14.9409 49.5995 15.6765C49.5995 16.4122 49.363 17.1255 48.9297 17.6972V17.6972Z" fill="black"/>
<path d="M62.5462 11.6177H62.5062C62.359 11.3969 62.188 11.1952 61.9968 11.0169C61.7651 10.7979 61.5086 10.6109 61.2333 10.4603C60.5374 10.0787 59.7649 9.88424 58.9828 9.89374C58.2974 9.88091 57.6196 10.0485 57.0091 10.3817C56.4403 10.6965 55.9381 11.1328 55.5335 11.6635C55.121 12.2105 54.8045 12.8329 54.5995 13.5004C54.3814 14.188 54.2703 14.9093 54.2705 15.6354C54.2625 16.4147 54.3848 17.1894 54.6316 17.9229C54.8552 18.5922 55.2039 19.206 55.6562 19.7269C56.107 20.2367 56.654 20.6383 57.261 20.905C57.921 21.1925 58.6283 21.3351 59.341 21.3244C59.8681 21.3146 60.3893 21.2033 60.8794 20.9957C61.429 20.773 61.9052 20.3824 62.2487 19.8726H62.2915V20.9401C62.3034 21.2961 62.2485 21.6511 62.13 21.9842C62.0115 22.3172 61.8318 22.6215 61.6015 22.8791C61.3093 23.1554 60.9676 23.3654 60.5972 23.4965C60.2268 23.6276 59.8354 23.6769 59.4466 23.6416C58.8301 23.649 58.2192 23.5175 57.6535 23.2558C57.0906 22.987 56.5654 22.636 56.0929 22.2127L54.3312 25.0225C55.0513 25.6423 55.893 26.0804 56.7936 26.3043C57.6848 26.5232 58.5964 26.6335 59.5108 26.6329C61.5201 26.6329 63.0164 26.0923 63.9997 25.0111C64.983 23.9298 65.4748 22.3459 65.4753 20.2592V10.1659H62.5498L62.5462 11.6177ZM62.355 16.6419C62.2294 16.9646 62.0453 17.2577 61.8134 17.5042C61.5773 17.7557 61.3005 17.9593 60.9964 18.1051C60.6806 18.2549 60.339 18.3324 59.9935 18.3324C59.648 18.3324 59.3064 18.2549 58.9906 18.1051C58.6906 17.9572 58.4174 17.7538 58.1836 17.5042C57.9507 17.2556 57.7659 16.9604 57.6398 16.6354C57.5138 16.3104 57.4489 15.962 57.4489 15.6102C57.4489 15.2584 57.5138 14.91 57.6398 14.585C57.7659 14.26 57.9507 13.9648 58.1836 13.7161C58.4175 13.4666 58.6907 13.263 58.9906 13.1145C59.3065 12.9652 59.6481 12.8881 59.9935 12.8881C60.3389 12.8881 60.6805 12.9652 60.9964 13.1145C61.3004 13.2609 61.5771 13.4647 61.8134 13.7161C62.1637 14.0924 62.402 14.5709 62.4983 15.0915C62.5947 15.6121 62.5448 16.1515 62.355 16.6419V16.6419Z" fill="black"/>
<path d="M77.4364 11.4706C76.9064 10.9557 76.286 10.5584 75.6112 10.3017C74.1616 9.75774 72.5818 9.75774 71.1323 10.3017C70.4572 10.5582 69.8365 10.9555 69.3063 11.4706C68.7863 11.9828 68.371 12.6043 68.0861 13.296C67.7918 14.0506 67.6402 14.8601 67.6402 15.6777C67.6402 16.4952 67.7918 17.3047 68.0861 18.0593C68.3699 18.7531 68.7854 19.3762 69.3063 19.8894C69.836 20.4049 70.4568 20.8021 71.1323 21.0575C72.5817 21.6024 74.1617 21.6024 75.6112 21.0575C76.2863 20.8019 76.9069 20.4048 77.4364 19.8894C77.9573 19.3762 78.3728 18.7531 78.6566 18.0593C78.9509 17.3047 79.1025 16.4952 79.1025 15.6777C79.1025 14.8601 78.9509 14.0506 78.6566 13.296C78.3717 12.6043 77.9564 11.9828 77.4364 11.4706V11.4706ZM75.2501 17.6972C74.7345 18.1934 74.0652 18.4681 73.3714 18.4681C72.6775 18.4681 72.0082 18.1934 71.4926 17.6972C71.0593 17.1255 70.8228 16.4122 70.8228 15.6765C70.8228 14.9409 71.0593 14.2275 71.4926 13.6559C72.0082 13.1596 72.6775 12.885 73.3714 12.885C74.0652 12.885 74.7345 13.1596 75.2501 13.6559C75.6834 14.2275 75.9199 14.9409 75.9199 15.6765C75.9199 16.4122 75.6834 17.1255 75.2501 17.6972Z" fill="black"/>
<path d="M83.326 10.2422H81.6185V21.1894H83.326V10.2422Z" fill="black"/>
<path d="M82.4726 4.62867C82.307 4.62531 82.1426 4.65891 81.9899 4.72731C81.8372 4.79572 81.6995 4.89743 81.5856 5.02594C81.412 5.21298 81.2941 5.45076 81.2468 5.70931C81.1994 5.96785 81.2247 6.23558 81.3196 6.47877C81.4144 6.72196 81.5744 6.92971 81.7795 7.07585C81.9847 7.22199 82.2257 7.29998 82.4722 7.29998C82.7188 7.29998 82.9598 7.22199 83.1649 7.07585C83.37 6.92971 83.5301 6.72196 83.6249 6.47877C83.7197 6.23558 83.745 5.96785 83.6977 5.70931C83.6503 5.45076 83.5324 5.21298 83.3588 5.02594C83.2451 4.89737 83.1076 4.79562 82.955 4.72721C82.8024 4.65879 82.638 4.62523 82.4726 4.62867V4.62867Z" fill="black"/>
<path d="M95.9564 11.6025C95.476 11.0785 94.8983 10.6678 94.2603 10.397C93.5601 10.1021 92.813 9.95523 92.0604 9.96465C91.3515 9.95596 90.6505 10.1244 90.0133 10.4565C89.3857 10.79 88.8301 11.2598 88.3821 11.8358H88.3365V10.2422H86.6311V26.5231H88.3365V19.2489H88.38C88.7425 19.916 89.2707 20.4628 89.9062 20.8288C90.6441 21.2702 91.4791 21.4924 92.3244 21.4723C93.0166 21.477 93.7022 21.3296 94.3388 21.0392C94.9534 20.7606 95.5083 20.3506 95.9692 19.8345C96.4373 19.3069 96.8054 18.6876 97.0531 18.0106C97.5783 16.5335 97.5783 14.9019 97.0531 13.4249C96.8032 12.7463 96.4305 12.127 95.9564 11.6025V11.6025ZM95.3541 17.3213C95.195 17.7979 94.946 18.2346 94.6226 18.6043C94.2992 18.974 93.9083 19.2689 93.474 19.4707C92.5137 19.891 91.4373 19.891 90.4771 19.4707C90.0422 19.2689 89.6507 18.9738 89.3269 18.6037C89.0031 18.2335 88.7539 17.7963 88.5948 17.319C88.2596 16.2815 88.2596 15.1539 88.5948 14.1165C88.7539 13.6392 89.0031 13.2019 89.3269 12.8318C89.6507 12.4616 90.0422 12.1665 90.4771 11.9647C91.4373 11.5444 92.5137 11.5444 93.474 11.9647C93.9089 12.1665 94.3004 12.4616 94.6242 12.8318C94.9479 13.2019 95.1971 13.6392 95.3563 14.1165C95.6915 15.1539 95.6915 16.2815 95.3563 17.319L95.3541 17.3213Z" fill="black"/>
<path d="M106.048 15.72C105.724 15.4607 105.362 15.2593 104.978 15.1237C104.555 14.9715 104.124 14.8502 103.686 14.7608C103.358 14.7008 103.033 14.6229 102.712 14.5274C102.426 14.4445 102.148 14.3348 101.88 14.1996C101.666 14.0956 101.472 13.9486 101.309 13.7665C101.171 13.6036 101.097 13.3901 101.102 13.1702C101.098 12.9329 101.163 12.7002 101.288 12.5038C101.411 12.3097 101.571 12.1461 101.758 12.0242C101.958 11.8948 102.177 11.8001 102.405 11.7436C102.638 11.6818 102.878 11.6503 103.118 11.6498C103.576 11.6346 104.028 11.7606 104.42 12.0127C104.775 12.2509 105.071 12.5755 105.285 12.9597L106.708 11.954C106.393 11.2893 105.881 10.7545 105.252 10.4328C104.618 10.1182 103.926 9.95851 103.227 9.96541C102.753 9.9642 102.282 10.0351 101.827 10.1759C101.39 10.3088 100.976 10.5147 100.6 10.7859C100.24 11.0454 99.9409 11.3894 99.7246 11.7916C99.5006 12.2199 99.3873 12.7041 99.3964 13.1946C99.3785 13.6747 99.4805 14.1513 99.6918 14.5755C99.8845 14.9302 100.154 15.2308 100.477 15.4524C100.833 15.6927 101.22 15.8778 101.625 16.0021C102.064 16.1424 102.523 16.2672 103.005 16.3765C103.283 16.439 103.552 16.5092 103.815 16.587C104.061 16.6575 104.296 16.7637 104.515 16.9026C104.708 17.025 104.876 17.1882 105.008 17.3822C105.139 17.5972 105.204 17.8508 105.194 18.1074C105.202 18.377 105.133 18.6428 104.997 18.8699C104.861 19.0851 104.682 19.265 104.472 19.396C104.245 19.5406 103.997 19.6437 103.738 19.701C103.476 19.7626 103.208 19.7941 102.939 19.7948C102.407 19.8168 101.88 19.6789 101.418 19.3968C100.993 19.1076 100.618 18.7406 100.313 18.3125L98.9568 19.4357C99.3765 20.1321 99.9722 20.6873 100.675 21.0369C101.395 21.3424 102.166 21.4897 102.941 21.47C103.445 21.4705 103.948 21.4078 104.439 21.2832C104.906 21.1678 105.351 20.966 105.753 20.6869C106.136 20.4146 106.454 20.0487 106.68 19.6194C106.925 19.1322 107.046 18.5848 107.031 18.0319C107.045 17.5566 106.955 17.0843 106.769 16.6525C106.599 16.2865 106.352 15.9673 106.048 15.72V15.72Z" fill="black"/>
<path d="M118.349 18.5931V10.2422H116.642V15.5797C116.647 16.1551 116.585 16.729 116.456 17.2877C116.346 17.7666 116.152 18.219 115.885 18.6206C115.631 18.9939 115.291 19.2918 114.899 19.486C114.449 19.6999 113.959 19.8041 113.466 19.791C113.132 19.8198 112.797 19.7626 112.489 19.6242C112.18 19.4858 111.907 19.2703 111.693 18.9957C111.283 18.358 111.082 17.5929 111.122 16.8203V10.2422H109.414V17.0025C109.409 17.6153 109.487 18.2258 109.644 18.815C109.782 19.3374 110.025 19.8209 110.358 20.2309C110.691 20.6318 111.106 20.945 111.571 21.146C112.125 21.3771 112.716 21.4885 113.311 21.4738C113.711 21.4773 114.11 21.4179 114.493 21.2977C114.84 21.1899 115.171 21.0326 115.478 20.8303C115.757 20.6465 116.011 20.4222 116.233 20.1639C116.432 19.934 116.599 19.6737 116.726 19.3914H116.77C116.77 19.7041 116.777 20.0091 116.792 20.3064C116.807 20.6038 116.814 20.9002 116.813 21.1955H118.434C118.434 20.8361 118.419 20.4384 118.389 20.0022C118.36 19.5661 118.347 19.0964 118.349 18.5931Z" fill="black"/>
<path d="M136.803 12.6403C136.689 12.1106 136.464 11.6153 136.146 11.1915C135.824 10.7815 135.41 10.4665 134.942 10.2765C134.353 10.0493 133.729 9.94225 133.103 9.96084C132.424 9.92911 131.751 10.121 131.177 10.5106C130.644 10.9187 130.197 11.4406 129.864 12.0432C129.776 11.8556 129.663 11.6411 129.524 11.3997C129.369 11.139 129.173 10.9093 128.944 10.721C128.663 10.4926 128.35 10.3125 128.017 10.1873C127.569 10.0264 127.098 9.95107 126.626 9.96465C126.226 9.96113 125.828 10.0205 125.444 10.1408C125.098 10.2486 124.766 10.4058 124.459 10.6082C124.18 10.7923 123.926 11.0165 123.704 11.2746C123.505 11.5044 123.339 11.7648 123.212 12.047H123.167C123.167 11.7344 123.16 11.4309 123.146 11.132C123.132 10.8331 123.124 10.5396 123.124 10.243H121.504C121.504 10.6024 121.519 11.0001 121.548 11.4363C121.577 11.8724 121.591 12.3403 121.591 12.84V21.1902H123.3V15.8572C123.295 15.2816 123.357 14.7074 123.486 14.1485C123.595 13.6694 123.789 13.2169 124.057 12.8156C124.311 12.4422 124.65 12.1442 125.042 11.9502C125.493 11.7361 125.983 11.6319 126.476 11.6452C126.768 11.6185 127.062 11.675 127.327 11.809C127.592 11.9429 127.82 12.1495 127.986 12.4077C128.352 13.21 128.511 14.1025 128.446 14.9926V21.1917H130.15V14.8736C130.145 14.4234 130.216 13.9758 130.358 13.5522C130.485 13.1767 130.679 12.8311 130.929 12.535C131.166 12.2578 131.452 12.035 131.772 11.88C132.095 11.7237 132.446 11.6439 132.801 11.646C133.222 11.6296 133.642 11.7175 134.027 11.9029C134.33 12.0595 134.593 12.2927 134.792 12.5823C134.985 12.8691 135.119 13.1955 135.187 13.5408C135.26 13.9021 135.297 14.2707 135.296 14.6403V21.1902H137V14.5465C137.006 13.9049 136.94 13.2649 136.803 12.6403Z" fill="black"/>
</svg>
