<svg width="136" height="28" viewBox="0 0 136 28" fill="none" xmlns="http://www.w3.org/2000/svg">
<path d="M0 9.3354V14.2599C1.703 14.2588 3.389 14.5894 4.963 15.233C6.536 15.8766 7.965 16.8204 9.169 18.0106C10.373 19.2002 11.327 20.6127 11.978 22.1672C12.629 23.7217 12.964 25.3877 12.962 27.0699H17.942C17.938 22.3684 16.046 17.8607 12.682 14.5359C9.318 11.2111 4.757 9.3408 0 9.3354Z" fill="white"/>
<path d="M24.903 0.470001H17.011C21.004 2.9701 24.386 6.3125 26.917 10.2574V2.4587C26.916 1.9311 26.704 1.4253 26.326 1.0524C25.949 0.679399 25.437 0.470001 24.903 0.470001Z" fill="white"/>
<path d="M4.958 0.470001H0V4.9038C5.947 4.9099 11.649 7.2472 15.854 11.4028C20.059 15.5584 22.424 21.1929 22.431 27.07H26.917V22.17C25.902 16.7845 23.262 11.8289 19.342 7.9554C15.423 4.082 10.408 1.4723 4.958 0.470001Z" fill="white"/>
<path d="M39.122 3.3982H35.961V19.1412H39.122V3.3982Z" fill="white"/>
<path d="M50.743 10.2189C50.217 9.7462 49.601 9.38141 48.931 9.14581C47.492 8.64641 45.924 8.64641 44.485 9.14581C43.815 9.38131 43.198 9.746 42.672 10.2189C42.156 10.6891 41.744 11.2596 41.461 11.8947C41.169 12.5874 41.018 13.3305 41.018 14.0811C41.018 14.8317 41.169 15.5748 41.461 16.2676C41.743 16.9044 42.155 17.4765 42.672 17.9476C43.198 18.4207 43.813 18.7853 44.483 19.02C45.922 19.5202 47.491 19.5202 48.93 19.02C49.6 18.7853 50.216 18.4207 50.741 17.9476C51.258 17.4763 51.671 16.9043 51.953 16.2676C52.245 15.5748 52.395 14.8317 52.395 14.0811C52.395 13.3305 52.245 12.5874 51.953 11.8947C51.67 11.2598 51.258 10.6894 50.743 10.2189ZM48.573 15.9351C48.061 16.3907 47.396 16.6428 46.707 16.6428C46.019 16.6428 45.354 16.3907 44.842 15.9351C44.412 15.4103 44.178 14.7554 44.178 14.0801C44.178 13.4047 44.412 12.7498 44.842 12.2251C45.354 11.7694 46.019 11.5173 46.707 11.5173C47.396 11.5173 48.061 11.7694 48.573 12.2251C49.003 12.7498 49.237 13.4047 49.237 14.0801C49.237 14.7554 49.003 15.4103 48.573 15.9351Z" fill="white"/>
<path d="M62.09 10.3541H62.05C61.904 10.1513 61.734 9.9662 61.544 9.8025C61.314 9.6014 61.06 9.4298 60.786 9.2915C60.095 8.9412 59.329 8.7627 58.552 8.7714C57.872 8.7596 57.199 8.9135 56.593 9.2194C56.028 9.5083 55.53 9.9088 55.128 10.3961C54.719 10.8983 54.404 11.4696 54.201 12.0824C53.984 12.7137 53.874 13.3758 53.874 14.0424C53.866 14.7579 53.988 15.469 54.233 16.1424C54.455 16.7568 54.801 17.3203 55.25 17.7986C55.697 18.2666 56.24 18.6353 56.843 18.8801C57.498 19.144 58.2 19.2749 58.908 19.2651C59.431 19.2562 59.948 19.1539 60.435 18.9634C60.981 18.7589 61.453 18.4003 61.794 17.9323H61.837V18.9123C61.849 19.2392 61.794 19.5651 61.676 19.8708C61.559 20.1765 61.38 20.4559 61.152 20.6924C60.862 20.946 60.523 21.1388 60.155 21.2592C59.787 21.3795 59.399 21.4248 59.013 21.3924C58.401 21.3991 57.794 21.2785 57.233 21.0382C56.674 20.7914 56.152 20.4692 55.683 20.0806L53.935 22.6601C54.649 23.2291 55.485 23.6313 56.379 23.8368C57.264 24.0378 58.169 24.139 59.076 24.1385C61.071 24.1385 62.556 23.6422 63.533 22.6496C64.509 21.657 64.997 20.2028 64.997 18.2872V9.0213H62.093L62.09 10.3541ZM61.9 14.9664C61.775 15.2627 61.592 15.5318 61.362 15.7581C61.128 15.9889 60.853 16.1758 60.551 16.3097C60.238 16.4472 59.899 16.5183 59.556 16.5183C59.213 16.5183 58.873 16.4472 58.56 16.3097C58.262 16.1739 57.991 15.9872 57.759 15.7581C57.528 15.5298 57.344 15.2588 57.219 14.9604C57.094 14.6621 57.03 14.3423 57.03 14.0193C57.03 13.6963 57.094 13.3765 57.219 13.0781C57.344 12.7798 57.528 12.5087 57.759 12.2805C57.991 12.0514 58.262 11.8645 58.56 11.7282C58.874 11.5911 59.213 11.5203 59.556 11.5203C59.898 11.5203 60.238 11.5911 60.551 11.7282C60.853 11.8626 61.128 12.0497 61.362 12.2805C61.71 12.6259 61.946 13.0651 62.042 13.5431C62.138 14.021 62.088 14.5162 61.9 14.9664Z" fill="white"/>
<path d="M76.871 10.2189C76.345 9.7462 75.729 9.38141 75.059 9.14581C73.62 8.64641 72.052 8.64641 70.613 9.14581C69.943 9.38131 69.327 9.746 68.8 10.2189C68.284 10.6891 67.872 11.2596 67.589 11.8947C67.297 12.5874 67.146 13.3305 67.146 14.0811C67.146 14.8317 67.297 15.5748 67.589 16.2676C67.871 16.9044 68.283 17.4765 68.8 17.9476C69.326 18.4209 69.943 18.7855 70.613 19.02C72.052 19.5202 73.62 19.5202 75.059 19.02C75.729 18.7853 76.346 18.4207 76.871 17.9476C77.388 17.4765 77.801 16.9044 78.082 16.2676C78.375 15.5748 78.525 14.8317 78.525 14.0811C78.525 13.3305 78.375 12.5874 78.082 11.8947C77.8 11.2596 77.387 10.6891 76.871 10.2189ZM74.701 15.9351C74.189 16.3907 73.525 16.6428 72.836 16.6428C72.147 16.6428 71.483 16.3907 70.971 15.9351C70.541 15.4103 70.306 14.7554 70.306 14.0801C70.306 13.4047 70.541 12.7498 70.971 12.2251C71.483 11.7694 72.147 11.5173 72.836 11.5173C73.525 11.5173 74.189 11.7694 74.701 12.2251C75.131 12.7498 75.366 13.4047 75.366 14.0801C75.366 14.7554 75.131 15.4103 74.701 15.9351Z" fill="white"/>
<path d="M82.718 9.09109H81.023V19.141H82.718V9.09109Z" fill="white"/>
<path d="M81.871 3.9377C81.706 3.9346 81.543 3.9655 81.391 4.0283C81.24 4.0911 81.103 4.1844 80.99 4.3024C80.818 4.4741 80.701 4.6924 80.654 4.9298C80.607 5.1671 80.632 5.4129 80.726 5.6362C80.82 5.8594 80.979 6.0502 81.183 6.1843C81.386 6.3185 81.625 6.3901 81.87 6.3901C82.115 6.3901 82.354 6.3185 82.558 6.1843C82.761 6.0502 82.92 5.8594 83.014 5.6362C83.109 5.4129 83.134 5.1671 83.087 4.9298C83.04 4.6924 82.923 4.4741 82.75 4.3024C82.637 4.1844 82.501 4.091 82.349 4.0282C82.198 3.9654 82.035 3.9346 81.871 3.9377Z" fill="white"/>
<path d="M95.256 10.3399C94.779 9.8588 94.206 9.4818 93.572 9.2332C92.877 8.9625 92.136 8.8277 91.388 8.8363C90.685 8.8283 89.989 8.983 89.356 9.2878C88.733 9.594 88.182 10.0253 87.737 10.5541H87.692V9.0911H85.999V24.0375H87.692V17.3595H87.735C88.095 17.972 88.619 18.474 89.25 18.8099C89.982 19.2152 90.811 19.4192 91.651 19.4007C92.338 19.405 93.018 19.2697 93.65 19.0031C94.26 18.7474 94.811 18.371 95.269 17.8971C95.733 17.4129 96.099 16.8443 96.345 16.2227C96.866 14.8668 96.866 13.3689 96.345 12.0129C96.097 11.39 95.727 10.8214 95.256 10.3399ZM94.658 15.5899C94.5 16.0275 94.253 16.4284 93.932 16.7678C93.611 17.1072 93.223 17.378 92.792 17.5632C91.838 17.949 90.77 17.949 89.817 17.5632C89.385 17.378 88.996 17.107 88.675 16.7672C88.353 16.4274 88.106 16.026 87.948 15.5878C87.615 14.6354 87.615 13.6002 87.948 12.6478C88.106 12.2097 88.353 11.8082 88.675 11.4684C88.996 11.1286 89.385 10.8577 89.817 10.6724C90.77 10.2866 91.838 10.2866 92.792 10.6724C93.223 10.8577 93.612 11.1286 93.933 11.4684C94.255 11.8082 94.502 12.2097 94.66 12.6478C94.993 13.6002 94.993 14.6354 94.66 15.5878L94.658 15.5899Z" fill="white"/>
<path d="M105.274 14.12C104.952 13.882 104.593 13.6971 104.211 13.5726C103.792 13.4328 103.364 13.3215 102.929 13.2394C102.604 13.1844 102.281 13.1129 101.962 13.0252C101.679 12.949 101.402 12.8483 101.137 12.7242C100.924 12.6288 100.731 12.4938 100.57 12.3266C100.433 12.1771 100.359 11.9811 100.364 11.7792C100.36 11.5614 100.425 11.3478 100.549 11.1674C100.67 10.9892 100.83 10.8391 101.015 10.7271C101.214 10.6083 101.431 10.5214 101.657 10.4695C101.889 10.4128 102.127 10.3839 102.365 10.3834C102.82 10.3694 103.269 10.4851 103.658 10.7166C104.01 10.9353 104.304 11.2332 104.517 11.586L105.929 10.6627C105.616 10.0524 105.108 9.5615 104.483 9.2662C103.854 8.9774 103.168 8.8308 102.474 8.8371C102.003 8.836 101.535 8.9011 101.083 9.0303C100.65 9.1524 100.239 9.3414 99.866 9.5903C99.509 9.8286 99.211 10.1444 98.997 10.5136C98.774 10.9068 98.662 11.3513 98.671 11.8016C98.653 12.2424 98.754 12.6799 98.964 13.0693C99.155 13.395 99.423 13.6709 99.743 13.8743C100.097 14.095 100.481 14.2649 100.884 14.379C101.319 14.5078 101.775 14.6224 102.253 14.7227C102.529 14.7801 102.797 14.8445 103.057 14.9159C103.301 14.9806 103.535 15.0782 103.752 15.2057C103.944 15.318 104.11 15.4679 104.241 15.646C104.372 15.8433 104.436 16.0762 104.426 16.3117C104.434 16.5592 104.366 16.8032 104.231 17.0117C104.096 17.2093 103.917 17.3744 103.709 17.4947C103.484 17.6274 103.238 17.7221 102.981 17.7747C102.72 17.8313 102.454 17.8601 102.188 17.8608C101.66 17.881 101.136 17.7544 100.678 17.4954C100.255 17.2299 99.884 16.893 99.58 16.5L98.234 17.5311C98.651 18.1705 99.243 18.6802 99.94 19.0011C100.655 19.2816 101.42 19.4168 102.189 19.3987C102.69 19.3991 103.189 19.3416 103.677 19.2272C104.14 19.1213 104.582 18.936 104.981 18.6798C105.362 18.4298 105.677 18.0939 105.901 17.6998C106.145 17.2525 106.265 16.75 106.25 16.2424C106.264 15.806 106.174 15.3725 105.989 14.9761C105.821 14.6401 105.576 14.3471 105.274 14.12Z" fill="white"/>
<path d="M117.486 16.7575V9.09109H115.791V13.9911C115.796 14.5193 115.734 15.0462 115.606 15.5591C115.497 15.9987 115.305 16.414 115.039 16.7827C114.787 17.1254 114.45 17.3989 114.061 17.5772C113.613 17.7736 113.127 17.8692 112.638 17.8572C112.307 17.8836 111.974 17.8311 111.668 17.7041C111.361 17.577 111.09 17.3791 110.878 17.1271C110.47 16.5416 110.271 15.8393 110.311 15.13V9.09109H108.616V15.2973C108.611 15.8598 108.687 16.4202 108.844 16.9612C108.98 17.4407 109.222 17.8846 109.552 18.2611C109.883 18.6291 110.295 18.9166 110.756 19.1011C111.307 19.3132 111.894 19.4155 112.484 19.4021C112.881 19.4052 113.277 19.3508 113.658 19.2404C114.002 19.1414 114.33 18.997 114.635 18.8113C114.912 18.6425 115.165 18.4366 115.385 18.1995C115.583 17.9884 115.748 17.7495 115.874 17.4904H115.917C115.917 17.7774 115.925 18.0574 115.939 18.3304C115.954 18.6034 115.961 18.8754 115.961 19.1466H117.569C117.569 18.8166 117.555 18.4515 117.525 18.0511C117.496 17.6507 117.483 17.2195 117.486 16.7575Z" fill="white"/>
<path d="M135.804 11.2927C135.691 10.8065 135.468 10.3518 135.152 9.9627C134.833 9.5863 134.422 9.2971 133.957 9.1227C133.372 8.9142 132.753 8.81591 132.132 8.83291C131.457 8.80381 130.79 8.98001 130.219 9.33761C129.691 9.71231 129.247 10.1915 128.916 10.7446C128.829 10.5724 128.717 10.3755 128.579 10.1538C128.425 9.91451 128.23 9.7036 128.003 9.5308C127.724 9.3211 127.413 9.1558 127.082 9.0408C126.638 8.8932 126.17 8.824 125.702 8.8364C125.305 8.8332 124.909 8.8877 124.529 8.9981C124.184 9.0971 123.855 9.2415 123.55 9.4272C123.273 9.5962 123.021 9.80211 122.801 10.039C122.603 10.25 122.438 10.489 122.312 10.7481H122.268C122.268 10.4611 122.261 10.1825 122.247 9.9081C122.233 9.6337 122.225 9.3642 122.225 9.0919H120.617C120.617 9.4219 120.632 9.78701 120.66 10.1874C120.689 10.5878 120.704 11.0174 120.704 11.4761V19.1418H122.4V14.246C122.395 13.7175 122.457 13.1905 122.585 12.6773C122.693 12.2375 122.885 11.8222 123.152 11.4537C123.403 11.1109 123.74 10.8374 124.129 10.6592C124.577 10.4627 125.063 10.3671 125.553 10.3792C125.843 10.3548 126.134 10.4066 126.398 10.5296C126.661 10.6525 126.887 10.8422 127.052 11.0792C127.416 11.8158 127.573 12.6351 127.508 13.4522V19.1432H129.2V13.343C129.195 12.9297 129.265 12.5188 129.407 12.1299C129.532 11.7852 129.725 11.468 129.974 11.1961C130.208 10.9417 130.493 10.7371 130.81 10.5948C131.131 10.4513 131.479 10.378 131.831 10.3799C132.25 10.3649 132.667 10.4457 133.048 10.6158C133.349 10.7595 133.61 10.9736 133.808 11.2395C133.999 11.5028 134.133 11.8024 134.2 12.1194C134.273 12.4511 134.309 12.7895 134.308 13.1288V19.1418H136V13.0427C136.006 12.4538 135.941 11.8662 135.804 11.2927Z" fill="white"/>
</svg>
